<svg xmlns="http://www.w3.org/2000/svg" viewBox="0 0 250.92 218.45"><title>cAsset 2</title><g id="Layer_2" data-name="Layer 2"><g id="Layer_1-2" data-name="Layer 1"><path d="M246.88,189c-2.49-2.24-19.13-21.06-20.59-22.7l-7.13-15.84-12.8-19.63c-.31-.79-2.19-5.53-4.91-10.81.88-1,1.82-2.07,2.76-3.27a45.23,45.23,0,0,0,3.3-4.78c1.18-2,1.14-2.67.72-3s-1.05-.21-2.73,1.43a45.27,45.27,0,0,0-3.82,4.38c-.63.81-1.22,1.61-1.76,2.39-1-1.8-2.08-3.59-3.22-5.24-4.88-7.11-17.44-14-20.3-15.5.18-.18.94-.68,3.53-.6a7.77,7.77,0,0,0,8-5.15l.16-.52-.35-.42a115.76,115.76,0,0,1-7.3-9.47c-1.56-2.53-6.54-3.93-9.63-4.57A8.24,8.24,0,0,0,174,69.85V68.79l-1.06.06c-1.14.07-3.77-.1-4.58-1-1.47-1.69-9.71-5.21-11.35-5.9l-.17-.05c-3.71-.82-10-2.41-11.24-3.21s-3.4-4-4.61-6c-.29-1.15-2-8.06-2.77-10.66-.65-2.26-2.89-10.51-3.7-13.48a7.43,7.43,0,0,1,2.68,1.54l.28.24,28.92.4h.25l8.94-4.61-2.28-.74c-.17-.05-16.59-5.4-21-7.17a18.53,18.53,0,0,1-4.76-3.29c-2.3-2-4.47-3.81-6.88-2.91l-.41.16c-1.36.51-1.36.51-2.27,0a35.34,35.34,0,0,0-3.12-1.68c-4.32-2.08-7.07-.2-8.1,1.31-1.9.82-12.84,5.52-17.09,6.41-5.08,1.06-10.52,7.65-10.75,7.93l-.6.73,3.7,3.41c.09.55.29,1.73.49,3.19-.06.07-.13.12-.19.21-.53.68-.62,1.29-.23,1.59a.62.62,0,0,0,.38.13h.09a.85.85,0,0,0,.2-.07,35,35,0,0,1,.28,8.07c-.44,2.75.92,5.58,1.92,7.65.24.5.53,1.1.66,1.47a8.32,8.32,0,0,0-1.49,2.85c-.69,1.71-1.83,4.58-3.05,4.6a6.58,6.58,0,0,0-4.78,2c-.27,0-.54.07-.79.12-2.76.53-2.84,5.74-2.66,13.63,0,1.14.05,2.21.05,3.12,0,2.08-.1,3.59-.17,4.81A10.38,10.38,0,0,0,93,87.78a13.78,13.78,0,0,0,.86,1.78,26.26,26.26,0,0,1,3.28,9.7c.74,5.52,5.51,7.17,8.48,7.34a22.67,22.67,0,0,1,.74,6.4h.14c-.88.95-1.83,2.07-2.78,3.3h0c-2,2.54-5.12,6.92-4,7.78a.57.57,0,0,0,.36.12c1.37,0,4.4-3.62,6.19-5.92l.17-.22c-.07,1.92-.19,3.48-.25,4.2l-7.62,5.59-.64.5.33.74s.5,1.15.5,4.62c0,5.49,2,12.73,2.9,15.66a77.23,77.23,0,0,0-10.52.8c-3.21.57-4.36,1.93-4.76,3l-.78-.17c-3.15-1.13-7.71,1.4-8.23,1.69l-.56.32.33,3.52-1.59-.37a7,7,0,0,0-2-6.62l.34-4.36c1.13-2.43,1.2-4.16.23-5.26s-2.81-1.09-4-.87l-.64-22.74,2.83-3.63-2.93.1,0-.66,2.92-3.74-3,.1,0-.56,3-3.84-3.1.11v-.46l3.08-3.95-3.18.11L68.57,88l4.62-9.61-1.36-.18-1-.11a16.74,16.74,0,0,0,1.71-7.47c0-7.3-4.36-13.24-9.72-13.24s-9.72,5.94-9.72,13.24a16.39,16.39,0,0,0,2.3,8.53c-1.33.31-2.16.56-2.27.6l-1.29.41L57,87.65l.56,2.64,1.66,1.53.44,10.36-2.92.1,3.07,3.42,0,.77-3.07.11L60,110.18l0,.59-3.22.11,3.38,3.77,0,.41-3.36.12,3.54,3.94.41,9.68.25,14-1.54.26a46.59,46.59,0,0,0-5.46,1.36l-.28.09-.19.22a14.83,14.83,0,0,1-2.42,2.42,1.21,1.21,0,0,0-.8.7c-.12.29-.43,1,1,3.86a3.63,3.63,0,0,0-1,.88A8.14,8.14,0,0,0,49,158.23c.25,1.47,1.74,3,2.62,3.73-.61,2.55,1.66,4.32,3.21,5.53a10.1,10.1,0,0,1,1.38,1.2c1.23,1.47,5.63,4,7.18,4.88l2.42,44.18H76.08l-2.94-45.23,6.28-.65c2.93,3,24,24.76,28.2,29,4.56,4.52,19.79,16.22,20.43,16.72l1.17.9,4.83-16.86v-.15c-.07-7.44,0-15.45.12-20.85,1.31,8.9,3.28,25.21,4.55,36.41l.1.89,83.46-.14-9.18-29c2.8-1,5.32-1.22,5.59-.69,1.16,2.32,8.4,3.18,11.74,3.46,2.86,1.88,14.59,9.33,18.2,8.23a3.05,3.05,0,0,0,2.19-2.31C251.44,194.67,248.83,190.77,246.88,189Zm-44.4-73.6a32.23,32.23,0,0,1,4.89-5.3,31.37,31.37,0,0,1-3.93,6c-.83,1.07-1.67,2.07-2.46,2.94l-.5-.94C201.06,117.28,201.74,116.34,202.48,115.41ZM106,56.07a13,13,0,0,1,.95-2.08,1.27,1.27,0,0,0,.65-.67c.33-.78-.11-1.68-.83-3.18-.88-1.83-2.09-4.34-1.75-6.47.69-4.31-1-13.71-1.07-14.11l-.06-.33-2.79-2.57c1.51-1.68,5.5-5.8,9-6.53,4.84-1,17.24-6.42,17.77-6.65l.3-.14.16-.28c.16-.28,1.72-2.7,5.69-.79,1.47.71,2.37,1.24,3,1.6,1.68,1,2,.95,4,.19l.41-.15c1.31-.49,3,.92,4.88,2.55a20.33,20.33,0,0,0,5.31,3.63c3.49,1.41,14.11,4.92,18.82,6.47l-4.24,2.18-28-.39c-1-.79-3.61-2.63-5.49-1.45l-.63.39.19.72c0,.12,3.21,11.82,4,14.59s2.77,10.67,2.79,10.75l.12.28c.34.55,3.36,5.42,5.29,6.7s10.46,3.17,11.83,3.47c3.89,1.64,9.68,4.36,10.53,5.34,1.17,1.33,3.5,1.65,5,1.72a7.85,7.85,0,0,1-4.08,4.54l-.4.22c-4.17-.76-20.83-4-28-8.66A43.34,43.34,0,0,0,126,61.06c-3.17-2.1-7.35-.75-9.65,0l-.6.19c-1.45.45-8.36.7-12.7.75-.18,0-.72-.08-1.43-.13C103.83,61.49,105,58.5,106,56.07ZM95.9,64a31.13,31.13,0,0,1,7,0H103c1.13,0,11.13-.15,13.33-.84l.63-.2a20.66,20.66,0,0,1,3.84-1l-.51.68c-1.59,2.15-3.77,5.1-9.14,5.79-9,1.16-8.72,10.33-8.63,11.67a9.8,9.8,0,0,1-2.8,2.14,25.11,25.11,0,0,1-4.78-2.91c0-.21,0-.4,0-.62,0-.93,0-2-.05-3.17C94.69,68,95,64.13,95.9,64Zm7.51,16.56a4.49,4.49,0,0,1,3.69,1c1,.9,1,2.14.1,3.7a4.53,4.53,0,0,1-4.09.73,3.73,3.73,0,0,1-2.85-2.85C101.12,82.62,103.08,81.41,103.41,80.52ZM96.83,91c-.44-1-.87-1.78-1.23-2.43a12.85,12.85,0,0,1-.74-1.5,8.93,8.93,0,0,1-.12-3.42c.05-.84.11-1.85.15-3.06a28.41,28.41,0,0,0,4.37,2.56,4.77,4.77,0,0,0,3.63,3.74,7,7,0,0,0,1.59.19,5,5,0,0,0,3.46-1.22l.08-.1c1.23-2.06.87-3.47.35-4.29a5.45,5.45,0,0,0-4.68-2.07l-.24,0c-.06-2.25.39-9.05,7.79-10,5.79-.75,8.22-4,9.82-6.19a13.08,13.08,0,0,1,1.09-1.35,5.35,5.35,0,0,1,2.32.57,10.43,10.43,0,0,0-7.23,8.38c-.36,2.48.41,4.48,2,5.2a6.8,6.8,0,0,0,2.77.52,14.94,14.94,0,0,0,4.57-.84,2.8,2.8,0,0,0,.57-.21l.11,0h0a3.09,3.09,0,0,0,1.07-1,3.49,3.49,0,0,0,.71-2.93,3.83,3.83,0,0,0-1.93-2.22l-.21,0a6.37,6.37,0,0,0-4.77,1.58,3.62,3.62,0,0,0-1,2.47v.21l.16.14A10.84,10.84,0,0,0,124,75.43a7.59,7.59,0,0,1-4.27-.25c-1.18-.53-1.73-2.12-1.44-4.14a9.29,9.29,0,0,1,7.55-7.79,8,8,0,0,1,3.28,1.52l.11.26.23.16c.07,0,6.52,4.59,6.89,11.21l0,.44.34.28s2,1.6,4.31,3.71c2.47,4.89,3.68,11.89,1.58,16.35a6.35,6.35,0,0,1-5.07,3.8c-5,.73-7.26-1.67-9.94-4.45-1.89-2-3.84-4-6.92-5.09-7.39-2.62-19.93-3.14-22-2.62A2.76,2.76,0,0,0,96.83,91ZM124,74.36a10.31,10.31,0,0,1-1.85-1.2,2.73,2.73,0,0,1,.74-1.54,3.49,3.49,0,0,1,1.05-.7A14.39,14.39,0,0,0,124,74.36Zm1-3.6h.41a5.25,5.25,0,0,1-.39,3.52A13.74,13.74,0,0,1,125,70.75Zm1.32-.37c.18,0,.34,0,.53,0a2.76,2.76,0,0,1,1.31,1.53,2.55,2.55,0,0,1-.56,2.1,2.13,2.13,0,0,1-.71.65l-.55.2-.15,0a2.5,2.5,0,0,1-.36,0A6,6,0,0,0,126.28,70.39Zm24.51,71.35a50.56,50.56,0,0,1-11.56,4.7c2.14-11.47-6.23-39.06-8.32-45.68a9.05,9.05,0,0,0,4.87,1.35,12.93,12.93,0,0,0,1.88-.14,7.39,7.39,0,0,0,5.83-4.37c1.93-4.11,1.25-10.2-.65-15.08,1.4,1.32,2.81,2.73,4,4.06,2.93,3.34.64,17.62-.46,24.49-.24,1.5-.45,2.78-.58,3.74C145,120.35,149.71,137.83,150.79,141.74ZM104.36,93.32,103,92.18a57.78,57.78,0,0,1,9.61-1.62,44.54,44.54,0,0,1,7.73,1.82c2.85,1,4.72,3,6.53,4.84a30.83,30.83,0,0,0,2.7,2.59c.79,2.46,11.2,35.13,8.6,46.88-4.79,1-9.66.68-12.25-3.27a49,49,0,0,0-12.79-13C113.56,102.33,104.76,93.7,104.36,93.32Zm-6.78-.47c.07-1.32.38-2.84,1.28-3.07s5.06-.22,9.65.25c-3.64.54-8.62,1.58-10.72,3.41C97.72,93.24,97.65,93,97.58,92.85Zm8.7,11.77c-.26,0-6.4.11-7.17-5.62a28.45,28.45,0,0,0-1-4.5,8.19,8.19,0,0,1,3.7-2l1.86,1.55s2.29,2.21,4.44,7.87c1.92,5,4.13,13.92,4,27.81-1.5-1-2.69-1.68-3.3-2l-.71-5c.06-.63.31-3.55.34-7h-.4c.57-.83,1.08-1.61,1.48-2.3,1.18-2,1.14-2.67.72-3s-.85-.22-2,.73a17.55,17.55,0,0,0-1.06-6l-.26-.63Zm-.83,13a31.41,31.41,0,0,1-4.88,5.29,31.45,31.45,0,0,1,3.93-6h0a46.41,46.41,0,0,1,3.4-3.94h.46c0-.15,0-.29,0-.44a11.51,11.51,0,0,1,1-.92,24.38,24.38,0,0,1-2.53,4.16h-.39c0,.19,0,.37,0,.55C106.13,116.74,105.8,117.18,105.44,117.65Zm-34.88-47a14.43,14.43,0,0,1-1.87,7.3h-.09l-1.31,0H65.83a10.47,10.47,0,0,1-5.38-3.49,16.49,16.49,0,0,0,5.94-13.73C68.86,62.52,70.55,66.28,70.55,70.62Zm-13-8.18a6.66,6.66,0,0,1,5.27-3.06,5.55,5.55,0,0,1,2.47.6,15.45,15.45,0,0,1-5.44,13.58C57.32,69.7,57.39,64.6,57.56,62.44Zm-2.44,8.18a15,15,0,0,1,1.36-6.35c0,2.92.49,7.37,3.19,10.73a11.08,11.08,0,0,0,3.68,3,50.71,50.71,0,0,0-5.83.75A14,14,0,0,1,55.12,70.62Zm0,10.67A49.86,49.86,0,0,1,63,80l.47,0,.79,0,1.23,0h2c.52,0,1,0,1.57.07l1.07.08-3.46,7.21-7.83-.43Zm11.87,20.15-5.27.18-.45-10.5a11.34,11.34,0,0,1,5.35-2.75ZM59.42,89.26l-.3-1.45,4.94.27a13.75,13.75,0,0,0-3.47,2.25ZM60,103.68l8.93-.31-1.47,1.9-5.86.2Zm0,4.3,9-.31-1.48,1.9-5.86.2Zm.07,4.33-1.11-.5,1.08,0,0,.5,8.92-.31-1.48,1.9-5.86.2Zm-1.07,3.8,1.23,0,0,.5,8.78-.31-1.45,1.86-6.54.26Zm9,25.32c-2.32.38-4,.73-5,1l-.25-13.67-.36-8.4,5-.17ZM55,146.29a43.81,43.81,0,0,1,4.92-1.21l3.25-.54v-.08c.86-.22,2.52-.59,5-1v.2l1.27-.42c1-.34,2.73-.54,3.19,0,.29.33.28,1.36-.61,3.24l-.08.17,0,.33c-3.88,2.21-15.09,4.21-18.3,4.74a17.69,17.69,0,0,1-1.25-2.88A14.74,14.74,0,0,0,55,146.29ZM53.4,160.84c-.92-.72-2.28-2.11-2.42-2.94a6.22,6.22,0,0,1,.93-4,1.23,1.23,0,0,1,.93-.55l1.57-.09-.33-.62c3.47-.58,13.32-2.38,17.71-4.5l-.33,4.27h0c-3.28,3.34-14.83,7.39-18,8.47Zm2.66,5.08c-1.83-1.43-3-2.47-2.36-3.89l.09-.2c3.28-1.1,14.9-5.17,18.43-8.76a4.88,4.88,0,0,1,1.07,5.43l-.16.39-15.59,8.32A13.7,13.7,0,0,0,56.06,165.92Zm2.22,2,15.33-8.18h.06a11.65,11.65,0,0,1-2.11,4.7h-.48v.69A48,48,0,0,1,64.7,172,51.29,51.29,0,0,1,58.28,167.93Zm15.66,47.84H67.71l-2.35-43a50.22,50.22,0,0,0,5.73-6v3.93H71ZM248.87,197a1.05,1.05,0,0,1-.83.83c-2.08.65-11-4.37-16.73-8.13l-.21-.14-.26,0c-5.07-.4-9.92-1.51-10.37-2.38-1.37-2.74-7.22-.65-9,.05l-.86.34,8.92,28.2-78.95.13c-4.75-41.88-5.73-42.61-6.15-42.93l-.57-.38-.55.28c-.68.35-1.53.78-1.28,28.46l-3.94,13.75c-3.73-2.89-15.33-11.93-19.08-15.65-4.51-4.47-28.27-29-28.51-29.27l-.34-.35-7.1.73v-6.07h-.32A12.14,12.14,0,0,0,74.65,160l4.68,1.09-.47-5c1.49-.75,4.35-1.87,6-1.23l2,.44,1.31.23-.11-1.34c0-.06-.08-1.49,3.31-2.08a82.56,82.56,0,0,1,11.24-.78c2.53,1.65,22.16,14.12,36.41,14.12v-2c-13.42,0-32.69-12.11-35.27-13.77-.54-1.7-3.1-10.08-3.1-16a19.9,19.9,0,0,0-.42-4.68l6.06-4.44L107,129l.47.23a48.8,48.8,0,0,1,16.78,15.23c2.27,3.47,5.81,4.68,9.64,4.68,8.35,0,18-5.74,18.61-6.1l.65-.39-.21-.73c-.06-.21-5.93-21.17-5.16-26.89.13-.95.33-2.21.57-3.69,1.79-11.17,3.27-22.39,0-26.12a100.65,100.65,0,0,0-10-9.42c-.61-6.75-6.38-11.32-7.53-12.17l0,0a44.2,44.2,0,0,1,8.08,4.15c6.81,4.44,21.52,7.53,27.12,8.58l-.88.48,3,.42c3.45.48,9.39,2,10.67,4.08a106.2,106.2,0,0,0,7.09,9.25,5.81,5.81,0,0,1-5.8,3.25c-2.78-.11-4.52.4-5.3,1.52a2.23,2.23,0,0,0-.37,1.66l-4.67,15.69-.07.23,0,.24c2.27,11.89,7.14,44.17,2.42,50.71l1.62,1.17c6-8.33-1.31-48.17-2-52L176,98.48c3.51,1.9,14.75,8.3,19.07,14.58,5.19,7.57,9.43,18.48,9.48,18.59l12.83,19.7,7.16,15.9.16.25c.74.84,18.17,20.57,20.85,23C247.38,192.15,249.24,195.36,248.87,197Z"/><path d="M196.06,47.66c1.16,0,3-2.21,3.58-3s2.81-3.78,1.75-4.6-3.35,2-4,2.82h0c-.68.87-2.81,3.78-1.75,4.6A.72.72,0,0,0,196.06,47.66Zm2.08-4.14a10.74,10.74,0,0,1,2.5-2.47,10.79,10.79,0,0,1-1.79,3,10.75,10.75,0,0,1-2.5,2.48A10.79,10.79,0,0,1,198.14,43.52Z"/><path d="M203.79,86.72c1.16,0,3-2.21,3.58-3A14.67,14.67,0,0,0,209,81.13c.3-.65.64-1.55.08-2s-1.36.12-1.91.57A14.66,14.66,0,0,0,205.08,82h0c-.68.87-2.81,3.78-1.75,4.6A.72.72,0,0,0,203.79,86.72Zm2.08-4.14a10.76,10.76,0,0,1,2.49-2.47,13.8,13.8,0,0,1-4.28,5.5A10.76,10.76,0,0,1,205.87,82.58Z"/><path d="M175,51.67a.66.66,0,0,0,.42.15c.44,0,1.1-.39,2.32-1.58a45.26,45.26,0,0,0,3.82-4.38c2-2.54,5.12-6.92,4-7.78s-4.58,3.27-6.55,5.81a45.3,45.3,0,0,0-3.3,4.78C174.57,50.7,174.61,51.34,175,51.67Zm4.81-7.16h0a31.4,31.4,0,0,1,4.88-5.29,31.45,31.45,0,0,1-3.93,6,31.4,31.4,0,0,1-4.88,5.29A31.34,31.34,0,0,1,179.85,44.5Z"/><path d="M71.86,126.17a.66.66,0,0,0,.42.15c.44,0,1.1-.39,2.32-1.58a45.27,45.27,0,0,0,3.82-4.38c2-2.54,5.12-6.92,4-7.78a.73.73,0,0,0-.53-.14c-1.5.19-5.56,5.35-6,5.94C73.9,120.93,70.76,125.31,71.86,126.17ZM76.67,119h0a31.28,31.28,0,0,1,4.89-5.29,32.28,32.28,0,0,1-3.94,6A31.42,31.42,0,0,1,72.74,125,31.29,31.29,0,0,1,76.67,119Z"/><path d="M203.25,156.46c-1.5.19-5.56,5.35-6,5.94-2,2.54-5.12,6.92-4,7.78a.65.65,0,0,0,.42.15c.43,0,1.1-.39,2.32-1.58a51.48,51.48,0,0,0,7.13-9.15c1.18-2,1.14-2.67.72-3A.71.71,0,0,0,203.25,156.46Zm-4.28,7.3a31.4,31.4,0,0,1-4.88,5.29,31.32,31.32,0,0,1,3.93-6h0a31.44,31.44,0,0,1,4.88-5.29A31.42,31.42,0,0,1,199,163.76Z"/><path d="M86.31,77.54a.49.49,0,0,0,.32.13c.31,0,.84-.32,2-1.76,1.64-2.11,1.26-2.4,1-2.6-.44-.35-.94.15-1.21.41a12.66,12.66,0,0,0-1.06,1.21h0C85.68,77,86.05,77.34,86.31,77.54Z"/><path d="M161,56.16c-.37,0-1,.63-1.86,1.73s-1.27,1.85-1.22,2.23l0,.25.37.26.21,0c.38,0,1-.63,1.86-1.73s1.27-1.85,1.22-2.23l0-.25-.37-.26Z"/><path d="M225.17,21.41l.21.14.21,0c.38,0,1-.63,1.86-1.73,1.64-2.11,1.26-2.4,1-2.6l-.21-.14-.21,0c-.37,0-1,.63-1.86,1.73C224.54,20.92,224.92,21.22,225.17,21.41Z"/><path d="M246.59,72.24l.21.14.21,0c.38,0,1-.63,1.86-1.73,1.64-2.11,1.26-2.4,1-2.6l-.21-.14-.21,0c-.37,0-1,.63-1.86,1.73C246,71.75,246.34,72,246.59,72.24Z"/><path d="M3.5,99.5c-.44-.35-.94.15-1.21.41a12.66,12.66,0,0,0-1.06,1.21h0C.37,102.22,0,103,0,103.34l0,.25.37.26.21,0c.38,0,1-.63,1.86-1.73s1.27-1.85,1.22-2.23l0-.25Z"/><path d="M10.8,133.48l-.21,0c-.37,0-1,.63-1.86,1.73-1.64,2.11-1.26,2.4-1,2.6l.21.14.21,0c.38,0,1-.63,1.86-1.73s1.27-1.85,1.22-2.23l0-.25Z"/><path d="M38.77,113.68a2.63,2.63,0,0,0-.57.56c-.53.68-.62,1.29-.23,1.59a.6.6,0,0,0,.38.13,1.6,1.6,0,0,0,1.11-.75c.53-.68.62-1.29.23-1.59A.73.73,0,0,0,38.77,113.68Z"/><path d="M93.17,2.47a1,1,0,0,0,.53-.19,2.65,2.65,0,0,0,.57-.56c.53-.68.62-1.29.23-1.59S93.57.06,93,.75,92.41,2,92.79,2.34A.62.62,0,0,0,93.17,2.47Z"/><path d="M177.74,118.33a2.63,2.63,0,0,0-.57.56c-.53.68-.62,1.29-.23,1.59a.6.6,0,0,0,.38.13,1.6,1.6,0,0,0,1.11-.75c.54-.69.63-1.29.23-1.59A.73.73,0,0,0,177.74,118.33Z"/><path d="M195.26,73.85a1,1,0,0,0,.53-.19,2.64,2.64,0,0,0,.57-.56c.53-.68.62-1.29.23-1.59a.73.73,0,0,0-.91.06,2.66,2.66,0,0,0-.57.56h0c-.54.69-.62,1.29-.23,1.59A.62.62,0,0,0,195.26,73.85Z"/><path d="M221.3,40.39a1.6,1.6,0,0,0,1.11-.75c.54-.69.63-1.29.23-1.59a.73.73,0,0,0-.91.06,2.66,2.66,0,0,0-.57.56h0c-.53.68-.62,1.29-.23,1.59A.6.6,0,0,0,221.3,40.39Z"/><path d="M165.41,11.78h.09a1.88,1.88,0,0,0,1-.74A1.89,1.89,0,0,0,167,9.86a.63.63,0,0,0-.24-.42c-.39-.3-1-.06-1.48.62s-.62,1.29-.23,1.59A.62.62,0,0,0,165.41,11.78Z"/><path d="M161.12,109.38l-.21,0c-.37,0-1,.63-1.86,1.73-1.64,2.11-1.26,2.4-1,2.6l.21.14.21,0c.38,0,1-.63,1.86-1.73s1.27-1.85,1.22-2.23l0-.25Z"/><path d="M38.09,42.77l-.21-.14-.21,0c-.37,0-1,.63-1.86,1.73-1.64,2.11-1.26,2.4-1,2.6l.21.14.21,0c.38,0,1-.63,1.86-1.73C38.72,43.26,38.34,43,38.09,42.77Z"/></g></g></svg>