<?xml version="1.0" encoding="UTF-8" standalone="no"?>

<svg viewBox="0 0 600 600" >
    <defs>
        <mask id="sauceMask">
            <path id="sauceShape" fill="#000000"
                  d="m 200.37753,389.378 c 37.0974,-61.14909 90.83767,-149.55317 91.04666,-149.774 0.15062,-0.15923 4.42031,1.13419 9.48825,2.87408 17.78692,6.10651 34.23226,8.24317 57.24249,7.43728 23.39076,-0.8192 35.87371,-4.00967 61.57325,-15.73725 17.0996,-7.80307 32.14359,-11.93618 40.82691,-11.2166 2.82417,0.23433 5.03444,0.8159 5.42169,1.42724 0.36019,0.56766 21.95668,36.67995 47.99343,80.2495 26.03678,43.56959 48.94393,81.87385 50.90475,85.12062 l 3.56512,5.9032 H 382.50259 196.56515 Z"
                  style="display:inline;fill:#FFFFFF;fill-opacity:1;stroke:#FFFFFF;stroke-width:5.20907688;stroke-linecap:round;stroke-linejoin:round;stroke-miterlimit:4;stroke-dasharray:none;stroke-opacity:1" />
            <g id="bubblesGroup" fill="#000000">
                <circle cx="350" cy="430" r="4" />
                <circle cx="350" cy="430" r="14" />
                <circle cx="370" cy="430" r="4" />
                <circle cx="410" cy="430" r="30" />
                <circle cx="290" cy="430" r="14" />
                <circle cx="330" cy="430" r="4" />
                <circle cx="385" cy="430" r="4" />
                <circle cx="400" cy="430" r="14" />
                <circle cx="280" cy="430" r="4" />
                <circle cx="420" cy="430" r="4" />
                <circle cx="450" cy="430" r="30" />
                <circle cx="320" cy="430" r="4" />
                <circle cx="270" cy="430" r="4" />
                <circle cx="430" cy="430" r="4" />
                <circle cx="460" cy="430" r="14" />
                <circle cx="460" cy="430" r="4" />
                <circle cx="440" cy="430" r="4" />
                <circle cx="310" cy="430" r="30" />
                <circle cx="250" cy="430" r="4" />
                <circle cx="480" cy="430" r="4" />
            </g>
        </mask>
    </defs>
    <g id="flaskGroup">
        <path id="flask"
              d="m 335.43603,27.567382 19.0903,-0.313209 0.80171,79.560747 -182.37147,302.41607 419.89827,0.4633 -181.74021,-302.88515 -0.80171,-79.560757 19.03812,-0.285506"
              style="display:inline;fill:none;fill-rule:evenodd;stroke:#cccccc;stroke-width:18.89763832;stroke-linecap:round;stroke-linejoin:round;stroke-miterlimit:4;stroke-dasharray:none;stroke-opacity:1" />
        <g id="maskedSauce" mask="url(#sauceMask)" >
            <path id="sauce"
                  d="m 200.37753,389.378 c 37.0974,-61.14909 90.83767,-149.55317 91.04666,-149.774 0.15062,-0.15923 4.42031,1.13419 9.48825,2.87408 17.78692,6.10651 34.23226,8.24317 57.24249,7.43728 23.39076,-0.8192 35.87371,-4.00967 61.57325,-15.73725 17.0996,-7.80307 32.14359,-11.93618 40.82691,-11.2166 2.82417,0.23433 5.03444,0.8159 5.42169,1.42724 0.36019,0.56766 21.95668,36.67995 47.99343,80.2495 26.03678,43.56959 48.94393,81.87385 50.90475,85.12062 l 3.56512,5.9032 H 382.50259 196.56515 Z"
                  style="display:inline;fill:#00ff00;fill-opacity:1;stroke:#00ff00;stroke-width:5.20907688;stroke-linecap:round;stroke-linejoin:round;stroke-miterlimit:4;stroke-dasharray:none;stroke-opacity:1" />
        </g>
    </g>
</svg>
